<svg width="48" height="48" viewBox="0 0 48 48" fill="none" xmlns="http://www.w3.org/2000/svg">
<path d="M24 36.5C23.1716 36.5 22.5 37.1716 22.5 38C22.5 38.8284 23.1716 39.5 24 39.5H36C37.933 39.5 39.5 37.933 39.5 36V12C39.5 10.067 37.933 8.5 36 8.5H24C23.1716 8.5 22.5 9.17158 22.5 10C22.5 10.8284 23.1716 11.5 24 11.5L36 11.5C36.2761 11.5 36.5 11.7239 36.5 12L36.5 36C36.5 36.2761 36.2761 36.5 36 36.5H24Z" fill="white"/>
<path fill-rule="evenodd" clip-rule="evenodd" d="M6.5 26.2304C6.5 27.6111 7.61929 28.7304 9 28.7304H18.2252C18.2382 28.8773 18.2519 29.0241 18.2662 29.1709L18.3742 30.2826C18.5391 31.9788 20.3403 32.9947 21.8771 32.2581C25.1456 30.6917 28.3029 28.3411 30.8098 25.7236C31.7383 24.7542 31.7383 23.2256 30.8098 22.2562L30.6114 22.0491C28.1045 19.4316 25.1456 17.2881 21.8771 15.7217C20.3403 14.9852 18.5391 16.001 18.3742 17.6972L18.2662 18.809C18.2519 18.9557 18.2382 19.1026 18.2252 19.2494L9 19.2494C7.61929 19.2494 6.5 20.3687 6.5 21.7494V26.2304ZM21.1064 27.0614C21.0214 26.3075 20.3826 25.7304 19.6159 25.7304H9.5L9.5 22.2494H19.6159C20.4081 22.2494 21.0637 21.6334 21.113 20.8428C21.1493 20.261 21.1957 19.6797 21.2521 19.0992L21.2835 18.7765C23.8931 20.1214 26.2683 21.8818 28.3154 23.9899C27.4607 24.8701 26.5488 25.6897 25.5865 26.4437C24.244 27.4956 22.8035 28.42 21.2835 29.2033L21.2521 28.8806C21.1957 28.3001 21.1493 27.7188 21.113 27.1371C21.1114 27.1116 21.1092 27.0864 21.1064 27.0614Z" fill="white"/>
</svg>
