<svg width="48" height="48" viewBox="0 0 48 48" fill="none" xmlns="http://www.w3.org/2000/svg">
<path d="M24 36.5C23.1716 36.5 22.5 37.1716 22.5 38C22.5 38.8284 23.1716 39.5 24 39.5H36C37.933 39.5 39.5 37.933 39.5 36V12C39.5 10.067 37.933 8.5 36 8.5H24C23.1716 8.5 22.5 9.17158 22.5 10C22.5 10.8284 23.1716 11.5 24 11.5L36 11.5C36.2761 11.5 36.5 11.7239 36.5 12L36.5 36C36.5 36.2761 36.2761 36.5 36 36.5H24Z" fill="white"/>
<path fill-rule="evenodd" clip-rule="evenodd" d="M29.0062 28.7304C30.3869 28.7304 31.5062 27.6111 31.5062 26.2304V21.7494C31.5062 20.3687 30.3869 19.2494 29.0062 19.2494L19.781 19.2494C19.7679 19.1026 19.7543 18.9557 19.74 18.809L19.6319 17.6972C19.4671 16.001 17.6659 14.9852 16.129 15.7217C12.8606 17.2881 9.9017 19.4316 7.39471 22.0491L7.19631 22.2562C6.2679 23.2256 6.2679 24.7542 7.19631 25.7236L7.39471 25.9307C9.9017 28.5483 12.8606 30.6917 16.129 32.2581C17.6659 32.9947 19.4671 31.9788 19.6319 30.2826L19.74 29.1709C19.7543 29.0241 19.7679 28.8773 19.781 28.7304H29.0062ZM18.3902 25.7304C17.8575 25.7304 17.3865 26.009 17.1202 26.432C16.9905 26.6379 16.9093 26.8781 16.8931 27.1371C16.8568 27.7188 16.8105 28.3001 16.7541 28.8806L16.7227 29.2033C14.6506 28.1355 12.7263 26.8057 10.9968 25.2478C10.548 24.8437 10.1124 24.4242 9.69075 23.9899C11.7378 21.8818 14.113 20.1214 16.7227 18.7765L16.7541 19.0992C16.8105 19.6797 16.8568 20.261 16.8931 20.8428C16.9424 21.6334 17.598 22.2494 18.3902 22.2494H28.5062V25.7304H18.3902Z" fill="white"/>
</svg>
