<svg width="159" height="32" viewBox="0 0 159 32" fill="none" xmlns="http://www.w3.org/2000/svg">
<path d="M2.94969 5.76C2.82969 5.34 2.67969 5.02 2.49969 4.8C2.31969 4.56 2.08969 4.4 1.80969 4.32C1.54969 4.22 1.21969 4.17 0.819688 4.17H0.429688V2.58H10.4497V4.17H9.75969C9.15969 4.17 8.70969 4.29 8.40969 4.53C8.10969 4.75 7.95969 5.11 7.95969 5.61C7.95969 5.71 7.96969 5.86 7.98969 6.06C8.02969 6.24 8.06969 6.44 8.10969 6.66C8.16969 6.86 8.21969 7.05 8.25969 7.23L10.2697 14.16C10.4297 14.66 10.5897 15.22 10.7497 15.84C10.9097 16.44 11.0497 17.04 11.1697 17.64C11.3097 18.22 11.3997 18.73 11.4397 19.17C11.5797 18.53 11.7297 17.93 11.8897 17.37C12.0497 16.79 12.2197 16.21 12.3997 15.63L16.3597 2.79H18.5497L22.6897 14.25C22.9297 14.87 23.1397 15.5 23.3197 16.14C23.5197 16.78 23.6897 17.37 23.8297 17.91C23.9897 18.43 24.0997 18.87 24.1597 19.23C24.2597 18.75 24.3697 18.2 24.4897 17.58C24.6297 16.96 24.7697 16.32 24.9097 15.66C25.0497 14.98 25.1997 14.32 25.3597 13.68L26.9497 7.2C27.0097 6.96 27.0697 6.67 27.1297 6.33C27.1897 5.99 27.2197 5.74 27.2197 5.58C27.2197 5.06 27.0597 4.7 26.7397 4.5C26.4397 4.28 25.9597 4.17 25.2997 4.17H24.6097V2.58H32.4397V4.17H31.8697C31.4897 4.17 31.1597 4.23 30.8797 4.35C30.5997 4.45 30.3597 4.67 30.1597 5.01C29.9597 5.35 29.7697 5.85 29.5897 6.51L24.9397 24H21.5197L16.4797 9.93L12.1597 24H8.43969L2.94969 5.76ZM39.8141 24.3C37.4141 24.3 35.5241 23.61 34.1441 22.23C32.7641 20.83 32.0741 18.72 32.0741 15.9C32.0741 13.08 32.7341 10.98 34.0541 9.6C35.3741 8.22 37.3241 7.53 39.9041 7.53C42.3041 7.53 44.1941 8.22 45.5741 9.6C46.9541 10.98 47.6441 13.08 47.6441 15.9C47.6441 18.72 46.9741 20.83 45.6341 22.23C44.3141 23.61 42.3741 24.3 39.8141 24.3ZM39.8741 22.41C40.6541 22.41 41.2641 22.17 41.7041 21.69C42.1641 21.19 42.4941 20.46 42.6941 19.5C42.8941 18.52 42.9941 17.32 42.9941 15.9C42.9941 14.46 42.8941 13.27 42.6941 12.33C42.4941 11.37 42.1641 10.65 41.7041 10.17C41.2441 9.69 40.6341 9.45 39.8741 9.45C39.0941 9.45 38.4741 9.69 38.0141 10.17C37.5541 10.65 37.2241 11.37 37.0241 12.33C36.8241 13.27 36.7241 14.46 36.7241 15.9C36.7241 17.32 36.8241 18.52 37.0241 19.5C37.2241 20.46 37.5541 21.19 38.0141 21.69C38.4941 22.17 39.1141 22.41 39.8741 22.41ZM58.2125 24.3C55.8125 24.3 53.9225 23.61 52.5425 22.23C51.1625 20.83 50.4725 18.72 50.4725 15.9C50.4725 13.08 51.1325 10.98 52.4525 9.6C53.7725 8.22 55.7225 7.53 58.3025 7.53C60.7025 7.53 62.5925 8.22 63.9725 9.6C65.3525 10.98 66.0425 13.08 66.0425 15.9C66.0425 18.72 65.3725 20.83 64.0325 22.23C62.7125 23.61 60.7725 24.3 58.2125 24.3ZM58.2725 22.41C59.0525 22.41 59.6625 22.17 60.1025 21.69C60.5625 21.19 60.8925 20.46 61.0925 19.5C61.2925 18.52 61.3925 17.32 61.3925 15.9C61.3925 14.46 61.2925 13.27 61.0925 12.33C60.8925 11.37 60.5625 10.65 60.1025 10.17C59.6425 9.69 59.0325 9.45 58.2725 9.45C57.4925 9.45 56.8725 9.69 56.4125 10.17C55.9525 10.65 55.6225 11.37 55.4225 12.33C55.2225 13.27 55.1225 14.46 55.1225 15.9C55.1225 17.32 55.2225 18.52 55.4225 19.5C55.6225 20.46 55.9525 21.19 56.4125 21.69C56.8925 22.17 57.5125 22.41 58.2725 22.41ZM68.0609 24V22.41H68.1509C68.6109 22.41 69.0109 22.36 69.3509 22.26C69.6909 22.16 69.9609 21.96 70.1609 21.66C70.3609 21.34 70.4609 20.87 70.4609 20.25V11.55C70.4609 10.95 70.3709 10.51 70.1909 10.23C70.0109 9.93 69.7609 9.74 69.4409 9.66C69.1209 9.56 68.7409 9.51 68.3009 9.51H68.2109V7.92H74.2709L74.8709 10.26H75.0209C75.2809 9.66 75.5809 9.16 75.9209 8.76C76.2609 8.36 76.6909 8.06 77.2109 7.86C77.7509 7.66 78.4309 7.56 79.2509 7.56C80.4309 7.56 81.3009 7.77 81.8609 8.19C82.4209 8.61 82.7009 9.21 82.7009 9.99C82.7009 10.91 82.3609 11.63 81.6809 12.15C81.0209 12.65 80.0909 12.9 78.8909 12.9C78.8909 12.34 78.8409 11.88 78.7409 11.52C78.6609 11.16 78.5109 10.89 78.2909 10.71C78.0909 10.51 77.8009 10.41 77.4209 10.41C76.9009 10.41 76.4809 10.59 76.1609 10.95C75.8409 11.31 75.6009 11.76 75.4409 12.3C75.2809 12.82 75.1709 13.35 75.1109 13.89C75.0509 14.43 75.0209 14.87 75.0209 15.21V20.4C75.0209 20.98 75.1109 21.42 75.2909 21.72C75.4709 22 75.7209 22.19 76.0409 22.29C76.3609 22.37 76.7209 22.41 77.1209 22.41H78.0809V24H68.0609ZM83.6741 24V22.41H84.0341C84.3341 22.41 84.6441 22.37 84.9641 22.29C85.3041 22.19 85.5841 22 85.8041 21.72C86.0441 21.44 86.1641 21.02 86.1641 20.46V11.34C86.1641 10.8 86.0441 10.4 85.8041 10.14C85.5641 9.88 85.2741 9.71 84.9341 9.63C84.6141 9.55 84.3141 9.51 84.0341 9.51H83.6741V7.92H90.7241V20.46C90.7241 21.02 90.8341 21.44 91.0541 21.72C91.2941 22 91.5841 22.19 91.9241 22.29C92.2641 22.37 92.5741 22.41 92.8541 22.41H93.2141V24H83.6741ZM88.2941 5.22C87.5741 5.22 86.9641 5.05 86.4641 4.71C85.9841 4.35 85.7441 3.8 85.7441 3.06C85.7441 2.3 85.9941 1.75 86.4941 1.41C86.9941 1.07 87.6041 0.899999 88.3241 0.899999C89.0041 0.899999 89.5941 1.07 90.0941 1.41C90.6141 1.75 90.8741 2.3 90.8741 3.06C90.8741 3.8 90.6141 4.35 90.0941 4.71C89.5941 5.05 88.9941 5.22 88.2941 5.22ZM94.5509 24V22.41H95.8109C96.0909 22.41 96.3409 22.37 96.5609 22.29C96.8009 22.21 96.9909 22.04 97.1309 21.78C97.2709 21.52 97.3409 21.13 97.3409 20.61V6C97.3409 5.46 97.2709 5.06 97.1309 4.8C96.9909 4.54 96.8009 4.37 96.5609 4.29C96.3409 4.21 96.0909 4.17 95.8109 4.17H94.5509V2.58H103.191L108.171 17.07L112.941 2.58H121.431V4.17H120.171C119.891 4.17 119.631 4.22 119.391 4.32C119.151 4.4 118.961 4.58 118.821 4.86C118.701 5.12 118.641 5.54 118.641 6.12V20.46C118.641 21.02 118.701 21.44 118.821 21.72C118.961 22 119.151 22.19 119.391 22.29C119.631 22.37 119.891 22.41 120.171 22.41H121.431V24H111.831V22.41H112.131C112.551 22.41 112.901 22.37 113.181 22.29C113.461 22.21 113.671 22.05 113.811 21.81C113.951 21.57 114.021 21.21 114.021 20.73V5.55L107.961 24H105.921L99.5909 5.55V20.46C99.5909 21.02 99.6709 21.44 99.8309 21.72C100.011 22 100.271 22.19 100.611 22.29C100.951 22.37 101.351 22.41 101.811 22.41H101.991V24H94.5509ZM128.335 24.3C127.455 24.3 126.655 24.13 125.935 23.79C125.235 23.43 124.675 22.89 124.255 22.17C123.835 21.43 123.625 20.51 123.625 19.41C123.625 17.79 124.185 16.59 125.305 15.81C126.425 15.03 128.105 14.6 130.345 14.52L132.805 14.43V12.78C132.805 12.1 132.765 11.51 132.685 11.01C132.605 10.49 132.435 10.09 132.175 9.81C131.915 9.51 131.505 9.36 130.945 9.36C130.445 9.36 130.045 9.5 129.745 9.78C129.445 10.06 129.235 10.45 129.115 10.95C128.995 11.43 128.935 11.98 128.935 12.6C127.595 12.6 126.585 12.45 125.905 12.15C125.225 11.85 124.885 11.33 124.885 10.59C124.885 9.85 125.165 9.26 125.725 8.82C126.285 8.38 127.035 8.06 127.975 7.86C128.915 7.64 129.945 7.53 131.065 7.53C133.165 7.53 134.735 7.91 135.775 8.67C136.835 9.43 137.365 10.75 137.365 12.63V20.28C137.365 20.82 137.415 21.25 137.515 21.57C137.635 21.87 137.825 22.09 138.085 22.23C138.365 22.35 138.725 22.41 139.165 22.41H139.285V24H133.705L133.075 21.93H132.805C132.365 22.47 131.945 22.92 131.545 23.28C131.165 23.62 130.725 23.87 130.225 24.03C129.725 24.21 129.095 24.3 128.335 24.3ZM129.985 22.11C130.565 22.11 131.065 21.96 131.485 21.66C131.905 21.34 132.225 20.89 132.445 20.31C132.685 19.73 132.805 19.05 132.805 18.27V16.02L131.455 16.11C130.655 16.15 130.025 16.31 129.565 16.59C129.105 16.85 128.775 17.23 128.575 17.73C128.375 18.21 128.275 18.81 128.275 19.53C128.275 20.09 128.335 20.57 128.455 20.97C128.575 21.35 128.765 21.64 129.025 21.84C129.285 22.02 129.605 22.11 129.985 22.11ZM140.624 31.2V29.61H140.984C141.284 29.61 141.594 29.56 141.914 29.46C142.254 29.38 142.534 29.2 142.754 28.92C142.994 28.64 143.114 28.22 143.114 27.66V11.61C143.114 10.99 143.024 10.54 142.844 10.26C142.664 9.96 142.424 9.76 142.124 9.66C141.824 9.56 141.484 9.51 141.104 9.51H140.894V7.92H146.774L147.314 10.26H147.434C147.874 9.48 148.454 8.85 149.174 8.37C149.914 7.87 150.864 7.62 152.024 7.62C154.024 7.62 155.544 8.29 156.584 9.63C157.644 10.97 158.174 13.1 158.174 16.02C158.174 18.92 157.654 21.04 156.614 22.38C155.594 23.7 154.104 24.36 152.144 24.36C151.004 24.36 150.074 24.15 149.354 23.73C148.654 23.29 148.084 22.7 147.644 21.96H147.434C147.474 22.24 147.514 22.62 147.554 23.1C147.594 23.56 147.624 24.01 147.644 24.45C147.664 24.91 147.674 25.29 147.674 25.59V27.66C147.674 28.22 147.784 28.64 148.004 28.92C148.244 29.2 148.534 29.38 148.874 29.46C149.214 29.56 149.524 29.61 149.804 29.61H150.464V31.2H140.624ZM150.734 22.14C151.414 22.14 151.954 21.92 152.354 21.48C152.774 21.02 153.074 20.34 153.254 19.44C153.454 18.54 153.554 17.41 153.554 16.05C153.554 14.71 153.454 13.59 153.254 12.69C153.074 11.77 152.774 11.07 152.354 10.59C151.954 10.11 151.424 9.87 150.764 9.87C149.964 9.87 149.334 10.11 148.874 10.59C148.434 11.05 148.124 11.74 147.944 12.66C147.764 13.58 147.674 14.7 147.674 16.02C147.674 17.4 147.764 18.55 147.944 19.47C148.124 20.37 148.434 21.04 148.874 21.48C149.334 21.92 149.954 22.14 150.734 22.14Z" fill="black"/>
</svg>
