<svg width="177" height="145" viewBox="0 0 177 145" fill="none" xmlns="http://www.w3.org/2000/svg">
<circle cx="62.5" cy="37.5" r="35.625" fill="#97BAFF" fill-opacity="0.5" stroke="black" stroke-width="3.75"/>
<circle cx="115" cy="37.5" r="35.625" stroke="black" stroke-width="3.75"/>
<path d="M10.9497 117.76C10.8297 117.34 10.6797 117.02 10.4997 116.8C10.3197 116.56 10.0897 116.4 9.80969 116.32C9.54969 116.22 9.21969 116.17 8.81969 116.17H8.42969V114.58H18.4497V116.17H17.7597C17.1597 116.17 16.7097 116.29 16.4097 116.53C16.1097 116.75 15.9597 117.11 15.9597 117.61C15.9597 117.71 15.9697 117.86 15.9897 118.06C16.0297 118.24 16.0697 118.44 16.1097 118.66C16.1697 118.86 16.2197 119.05 16.2597 119.23L18.2697 126.16C18.4297 126.66 18.5897 127.22 18.7497 127.84C18.9097 128.44 19.0497 129.04 19.1697 129.64C19.3097 130.22 19.3997 130.73 19.4397 131.17C19.5797 130.53 19.7297 129.93 19.8897 129.37C20.0497 128.79 20.2197 128.21 20.3997 127.63L24.3597 114.79H26.5497L30.6897 126.25C30.9297 126.87 31.1397 127.5 31.3197 128.14C31.5197 128.78 31.6897 129.37 31.8297 129.91C31.9897 130.43 32.0997 130.87 32.1597 131.23C32.2597 130.75 32.3697 130.2 32.4897 129.58C32.6297 128.96 32.7697 128.32 32.9097 127.66C33.0497 126.98 33.1997 126.32 33.3597 125.68L34.9497 119.2C35.0097 118.96 35.0697 118.67 35.1297 118.33C35.1897 117.99 35.2197 117.74 35.2197 117.58C35.2197 117.06 35.0597 116.7 34.7397 116.5C34.4397 116.28 33.9597 116.17 33.2997 116.17H32.6097V114.58H40.4397V116.17H39.8697C39.4897 116.17 39.1597 116.23 38.8797 116.35C38.5997 116.45 38.3597 116.67 38.1597 117.01C37.9597 117.35 37.7697 117.85 37.5897 118.51L32.9397 136H29.5197L24.4797 121.93L20.1597 136H16.4397L10.9497 117.76ZM47.8141 136.3C45.4141 136.3 43.5241 135.61 42.1441 134.23C40.7641 132.83 40.0741 130.72 40.0741 127.9C40.0741 125.08 40.7341 122.98 42.0541 121.6C43.3741 120.22 45.3241 119.53 47.9041 119.53C50.3041 119.53 52.1941 120.22 53.5741 121.6C54.9541 122.98 55.6441 125.08 55.6441 127.9C55.6441 130.72 54.9741 132.83 53.6341 134.23C52.3141 135.61 50.3741 136.3 47.8141 136.3ZM47.8741 134.41C48.6541 134.41 49.2641 134.17 49.7041 133.69C50.1641 133.19 50.4941 132.46 50.6941 131.5C50.8941 130.52 50.9941 129.32 50.9941 127.9C50.9941 126.46 50.8941 125.27 50.6941 124.33C50.4941 123.37 50.1641 122.65 49.7041 122.17C49.2441 121.69 48.6341 121.45 47.8741 121.45C47.0941 121.45 46.4741 121.69 46.0141 122.17C45.5541 122.65 45.2241 123.37 45.0241 124.33C44.8241 125.27 44.7241 126.46 44.7241 127.9C44.7241 129.32 44.8241 130.52 45.0241 131.5C45.2241 132.46 45.5541 133.19 46.0141 133.69C46.4941 134.17 47.1141 134.41 47.8741 134.41ZM66.2125 136.3C63.8125 136.3 61.9225 135.61 60.5425 134.23C59.1625 132.83 58.4725 130.72 58.4725 127.9C58.4725 125.08 59.1325 122.98 60.4525 121.6C61.7725 120.22 63.7225 119.53 66.3025 119.53C68.7025 119.53 70.5925 120.22 71.9725 121.6C73.3525 122.98 74.0425 125.08 74.0425 127.9C74.0425 130.72 73.3725 132.83 72.0325 134.23C70.7125 135.61 68.7725 136.3 66.2125 136.3ZM66.2725 134.41C67.0525 134.41 67.6625 134.17 68.1025 133.69C68.5625 133.19 68.8925 132.46 69.0925 131.5C69.2925 130.52 69.3925 129.32 69.3925 127.9C69.3925 126.46 69.2925 125.27 69.0925 124.33C68.8925 123.37 68.5625 122.65 68.1025 122.17C67.6425 121.69 67.0325 121.45 66.2725 121.45C65.4925 121.45 64.8725 121.69 64.4125 122.17C63.9525 122.65 63.6225 123.37 63.4225 124.33C63.2225 125.27 63.1225 126.46 63.1225 127.9C63.1225 129.32 63.2225 130.52 63.4225 131.5C63.6225 132.46 63.9525 133.19 64.4125 133.69C64.8925 134.17 65.5125 134.41 66.2725 134.41ZM76.0609 136V134.41H76.1509C76.6109 134.41 77.0109 134.36 77.3509 134.26C77.6909 134.16 77.9609 133.96 78.1609 133.66C78.3609 133.34 78.4609 132.87 78.4609 132.25V123.55C78.4609 122.95 78.3709 122.51 78.1909 122.23C78.0109 121.93 77.7609 121.74 77.4409 121.66C77.1209 121.56 76.7409 121.51 76.3009 121.51H76.2109V119.92H82.2709L82.8709 122.26H83.0209C83.2809 121.66 83.5809 121.16 83.9209 120.76C84.2609 120.36 84.6909 120.06 85.2109 119.86C85.7509 119.66 86.4309 119.56 87.2509 119.56C88.4309 119.56 89.3009 119.77 89.8609 120.19C90.4209 120.61 90.7009 121.21 90.7009 121.99C90.7009 122.91 90.3609 123.63 89.6809 124.15C89.0209 124.65 88.0909 124.9 86.8909 124.9C86.8909 124.34 86.8409 123.88 86.7409 123.52C86.6609 123.16 86.5109 122.89 86.2909 122.71C86.0909 122.51 85.8009 122.41 85.4209 122.41C84.9009 122.41 84.4809 122.59 84.1609 122.95C83.8409 123.31 83.6009 123.76 83.4409 124.3C83.2809 124.82 83.1709 125.35 83.1109 125.89C83.0509 126.43 83.0209 126.87 83.0209 127.21V132.4C83.0209 132.98 83.1109 133.42 83.2909 133.72C83.4709 134 83.7209 134.19 84.0409 134.29C84.3609 134.37 84.7209 134.41 85.1209 134.41H86.0809V136H76.0609ZM91.6741 136V134.41H92.0341C92.3341 134.41 92.6441 134.37 92.9641 134.29C93.3041 134.19 93.5841 134 93.8041 133.72C94.0441 133.44 94.1641 133.02 94.1641 132.46V123.34C94.1641 122.8 94.0441 122.4 93.8041 122.14C93.5641 121.88 93.2741 121.71 92.9341 121.63C92.6141 121.55 92.3141 121.51 92.0341 121.51H91.6741V119.92H98.7241V132.46C98.7241 133.02 98.8341 133.44 99.0541 133.72C99.2941 134 99.5841 134.19 99.9241 134.29C100.264 134.37 100.574 134.41 100.854 134.41H101.214V136H91.6741ZM96.2941 117.22C95.5741 117.22 94.9641 117.05 94.4641 116.71C93.9841 116.35 93.7441 115.8 93.7441 115.06C93.7441 114.3 93.9941 113.75 94.4941 113.41C94.9941 113.07 95.6041 112.9 96.3241 112.9C97.0041 112.9 97.5941 113.07 98.0941 113.41C98.6141 113.75 98.8741 114.3 98.8741 115.06C98.8741 115.8 98.6141 116.35 98.0941 116.71C97.5941 117.05 96.9941 117.22 96.2941 117.22ZM102.551 136V134.41H103.811C104.091 134.41 104.341 134.37 104.561 134.29C104.801 134.21 104.991 134.04 105.131 133.78C105.271 133.52 105.341 133.13 105.341 132.61V118C105.341 117.46 105.271 117.06 105.131 116.8C104.991 116.54 104.801 116.37 104.561 116.29C104.341 116.21 104.091 116.17 103.811 116.17H102.551V114.58H111.191L116.171 129.07L120.941 114.58H129.431V116.17H128.171C127.891 116.17 127.631 116.22 127.391 116.32C127.151 116.4 126.961 116.58 126.821 116.86C126.701 117.12 126.641 117.54 126.641 118.12V132.46C126.641 133.02 126.701 133.44 126.821 133.72C126.961 134 127.151 134.19 127.391 134.29C127.631 134.37 127.891 134.41 128.171 134.41H129.431V136H119.831V134.41H120.131C120.551 134.41 120.901 134.37 121.181 134.29C121.461 134.21 121.671 134.05 121.811 133.81C121.951 133.57 122.021 133.21 122.021 132.73V117.55L115.961 136H113.921L107.591 117.55V132.46C107.591 133.02 107.671 133.44 107.831 133.72C108.011 134 108.271 134.19 108.611 134.29C108.951 134.37 109.351 134.41 109.811 134.41H109.991V136H102.551ZM136.335 136.3C135.455 136.3 134.655 136.13 133.935 135.79C133.235 135.43 132.675 134.89 132.255 134.17C131.835 133.43 131.625 132.51 131.625 131.41C131.625 129.79 132.185 128.59 133.305 127.81C134.425 127.03 136.105 126.6 138.345 126.52L140.805 126.43V124.78C140.805 124.1 140.765 123.51 140.685 123.01C140.605 122.49 140.435 122.09 140.175 121.81C139.915 121.51 139.505 121.36 138.945 121.36C138.445 121.36 138.045 121.5 137.745 121.78C137.445 122.06 137.235 122.45 137.115 122.95C136.995 123.43 136.935 123.98 136.935 124.6C135.595 124.6 134.585 124.45 133.905 124.15C133.225 123.85 132.885 123.33 132.885 122.59C132.885 121.85 133.165 121.26 133.725 120.82C134.285 120.38 135.035 120.06 135.975 119.86C136.915 119.64 137.945 119.53 139.065 119.53C141.165 119.53 142.735 119.91 143.775 120.67C144.835 121.43 145.365 122.75 145.365 124.63V132.28C145.365 132.82 145.415 133.25 145.515 133.57C145.635 133.87 145.825 134.09 146.085 134.23C146.365 134.35 146.725 134.41 147.165 134.41H147.285V136H141.705L141.075 133.93H140.805C140.365 134.47 139.945 134.92 139.545 135.28C139.165 135.62 138.725 135.87 138.225 136.03C137.725 136.21 137.095 136.3 136.335 136.3ZM137.985 134.11C138.565 134.11 139.065 133.96 139.485 133.66C139.905 133.34 140.225 132.89 140.445 132.31C140.685 131.73 140.805 131.05 140.805 130.27V128.02L139.455 128.11C138.655 128.15 138.025 128.31 137.565 128.59C137.105 128.85 136.775 129.23 136.575 129.73C136.375 130.21 136.275 130.81 136.275 131.53C136.275 132.09 136.335 132.57 136.455 132.97C136.575 133.35 136.765 133.64 137.025 133.84C137.285 134.02 137.605 134.11 137.985 134.11ZM148.624 143.2V141.61H148.984C149.284 141.61 149.594 141.56 149.914 141.46C150.254 141.38 150.534 141.2 150.754 140.92C150.994 140.64 151.114 140.22 151.114 139.66V123.61C151.114 122.99 151.024 122.54 150.844 122.26C150.664 121.96 150.424 121.76 150.124 121.66C149.824 121.56 149.484 121.51 149.104 121.51H148.894V119.92H154.774L155.314 122.26H155.434C155.874 121.48 156.454 120.85 157.174 120.37C157.914 119.87 158.864 119.62 160.024 119.62C162.024 119.62 163.544 120.29 164.584 121.63C165.644 122.97 166.174 125.1 166.174 128.02C166.174 130.92 165.654 133.04 164.614 134.38C163.594 135.7 162.104 136.36 160.144 136.36C159.004 136.36 158.074 136.15 157.354 135.73C156.654 135.29 156.084 134.7 155.644 133.96H155.434C155.474 134.24 155.514 134.62 155.554 135.1C155.594 135.56 155.624 136.01 155.644 136.45C155.664 136.91 155.674 137.29 155.674 137.59V139.66C155.674 140.22 155.784 140.64 156.004 140.92C156.244 141.2 156.534 141.38 156.874 141.46C157.214 141.56 157.524 141.61 157.804 141.61H158.464V143.2H148.624ZM158.734 134.14C159.414 134.14 159.954 133.92 160.354 133.48C160.774 133.02 161.074 132.34 161.254 131.44C161.454 130.54 161.554 129.41 161.554 128.05C161.554 126.71 161.454 125.59 161.254 124.69C161.074 123.77 160.774 123.07 160.354 122.59C159.954 122.11 159.424 121.87 158.764 121.87C157.964 121.87 157.334 122.11 156.874 122.59C156.434 123.05 156.124 123.74 155.944 124.66C155.764 125.58 155.674 126.7 155.674 128.02C155.674 129.4 155.764 130.55 155.944 131.47C156.124 132.37 156.434 133.04 156.874 133.48C157.334 133.92 157.954 134.14 158.734 134.14Z" fill="black"/>
</svg>
