<svg width="174" height="134" viewBox="0 0 174 134" fill="none" xmlns="http://www.w3.org/2000/svg">
<circle cx="111" cy="36" r="34" stroke="black" stroke-width="4"/>
<circle cx="63" cy="36" r="34" fill="#FF8F8F" fill-opacity="0.5" stroke="black" stroke-width="4"/>
<path d="M9.18175 125.064H12.1578L17.6938 106.568L17.8218 106.12H17.1818L22.9098 125.064H25.8858L33.0538 101.096H31.1978L26.0458 119.976L25.9498 120.52H26.5258L21.0538 101.096H17.7898L12.4138 119.88L12.2858 120.36H12.8618L7.90175 101.096H2.10975L9.18175 125.064ZM0.38175 102.184L5.24575 102.664H6.36575L11.1978 102.184V101.096H0.38175V102.184ZM14.3658 102.184L18.3978 102.664H20.4778L24.8618 102.184V101.096H14.3658V102.184ZM27.8378 102.184L31.2298 102.664H32.1578L35.5498 102.184V101.096H27.8378V102.184ZM42.7073 125.544C48.1793 125.544 51.7953 121.896 51.7953 116.168C51.7953 110.44 47.7633 106.984 42.7073 106.984C37.6833 106.984 33.6513 110.504 33.6513 116.168C33.6513 121.8 37.2033 125.544 42.7073 125.544ZM42.7073 124.424C40.4353 124.424 39.1553 121.8 39.1553 116.232C39.1553 110.632 40.4353 108.104 42.7073 108.104C45.0113 108.104 46.2593 110.632 46.2593 116.232C46.2593 121.8 45.0113 124.424 42.7073 124.424ZM63.301 125.544C68.773 125.544 72.389 121.896 72.389 116.168C72.389 110.44 68.357 106.984 63.301 106.984C58.277 106.984 54.245 110.504 54.245 116.168C54.245 121.8 57.797 125.544 63.301 125.544ZM63.301 124.424C61.029 124.424 59.749 121.8 59.749 116.232C59.749 110.632 61.029 108.104 63.301 108.104C65.605 108.104 66.853 110.632 66.853 116.232C66.853 121.8 65.605 124.424 63.301 124.424ZM74.524 125H84.956V124.008L81.468 123.656H77.948L74.524 124.008V125ZM76.604 125H82.012C81.948 123.368 81.916 119.624 81.916 117.384V111.912L81.66 107.304L81.244 107.016L74.268 109.032V109.8L76.604 110.056C76.7 111.592 76.732 112.616 76.732 114.728V117.384C76.732 119.624 76.7 123.368 76.604 125ZM81.916 114.728C82.588 112.072 83.548 110.632 85.18 109.512L84.156 109.256L84.892 110.184C85.724 111.368 86.492 112.104 87.708 112.104C89.308 112.104 90.012 110.984 90.076 109.512C89.756 107.592 88.508 106.984 86.972 106.984C84.924 106.984 82.556 108.936 81.692 112.648H80.668L81.916 114.728ZM91.309 125H100.653V124.008L97.165 123.688H94.669L91.309 124.008V125ZM93.357 125H98.765C98.669 123.368 98.637 119.624 98.637 117.384V112.456L98.765 107.304L98.349 107.016L90.989 108.936V109.704L93.357 109.96C93.421 111.464 93.453 112.712 93.453 114.824V117.384C93.453 119.624 93.421 123.368 93.357 125ZM95.917 104.04C97.453 104.04 98.669 102.952 98.669 101.384C98.669 99.912 97.453 98.792 95.917 98.792C94.413 98.792 93.165 99.912 93.165 101.384C93.165 102.952 94.413 104.04 95.917 104.04ZM102.362 125H111.034V123.912L107.098 123.4H106.33L102.362 123.912V125ZM102.874 102.184L107.418 102.664H107.93V101.096H102.874V102.184ZM105.85 125H107.418V113.928L107.226 101.096H105.978L105.85 125ZM115.162 125H116.826L124.698 103.72L125.114 102.6H126.138V101.096H124.282L117.722 118.664L117.498 119.272H118.394L111.61 101.096H106.394V102.6H106.618L115.162 125ZM121.466 125H132.73V123.912L127.546 123.4H126.618L121.466 123.912V125ZM124.25 125H129.882C129.754 121.352 129.754 117.576 129.754 113.768V112.36C129.754 108.584 129.754 104.808 129.882 101.096H124.506L124.378 114.536C124.314 117.48 124.378 121.256 124.25 125ZM127.034 102.664H127.578L132.634 102.184V101.096H127.034V102.664ZM139.233 125.544C141.921 125.544 143.137 124.424 144.929 122.44H146.241L145.633 120.648C143.617 122.92 142.561 123.368 141.729 123.368C140.289 123.368 139.329 122.44 139.329 120.52C139.329 118.184 140.577 116.712 142.657 115.816C143.617 115.464 145.473 114.984 147.201 114.536V113.704C145.505 114.12 143.009 114.728 141.409 115.208C136.193 116.648 134.561 118.28 134.561 121.192C134.561 123.88 136.481 125.544 139.233 125.544ZM148.385 125.512C150.465 125.512 151.681 124.776 152.513 123.016L151.937 122.6C151.329 123.56 150.977 123.816 150.497 123.816C149.889 123.816 149.569 123.4 149.569 122.184V113.576C149.569 108.936 147.681 106.984 143.137 106.984C138.177 106.984 135.393 108.904 135.105 111.88C135.393 112.968 136.193 113.544 137.345 113.544C138.561 113.544 139.649 112.712 139.745 110.504L139.969 108.072L137.665 108.84C139.265 108.296 140.289 108.104 141.312 108.104C143.745 108.104 144.513 109.096 144.513 112.424V122.088C144.833 124.2 146.049 125.512 148.385 125.512ZM152.964 133.288H162.82V132.36L159.652 132.008H156.42L152.964 132.36V133.288ZM155.076 133.288H160.388C160.324 130.344 160.292 127.464 160.292 125.192V123.08L160.356 122.632V110.024L160.324 109.832L160.004 107.336L159.588 107.016L152.708 109.032V109.8L155.076 110.056C155.14 111.592 155.172 112.68 155.172 114.76V125.224C155.172 127.464 155.14 130.344 155.076 133.288ZM164.964 125.544C169.22 125.544 172.772 121.992 172.772 116.168C172.772 110.248 169.668 106.984 165.732 106.984C163.108 106.984 160.804 108.136 159.236 110.792H159.012L159.556 111.144C160.996 109.48 162.02 109.192 163.204 109.192C165.732 109.192 167.204 110.984 167.204 116.2C167.204 121.544 165.508 123.272 163.012 123.272C161.7 123.272 160.804 123.016 159.812 121.992L159.14 122.28H159.524C160.996 124.552 162.82 125.544 164.964 125.544Z" fill="black"/>
</svg>
