<svg width="250" height="41" viewBox="0 0 250 41" fill="none" xmlns="http://www.w3.org/2000/svg">
<path d="M10.9497 13.76C10.8297 13.34 10.6797 13.02 10.4997 12.8C10.3197 12.56 10.0897 12.4 9.80969 12.32C9.54969 12.22 9.21969 12.17 8.81969 12.17H8.42969V10.58H18.4497V12.17H17.7597C17.1597 12.17 16.7097 12.29 16.4097 12.53C16.1097 12.75 15.9597 13.11 15.9597 13.61C15.9597 13.71 15.9697 13.86 15.9897 14.06C16.0297 14.24 16.0697 14.44 16.1097 14.66C16.1697 14.86 16.2197 15.05 16.2597 15.23L18.2697 22.16C18.4297 22.66 18.5897 23.22 18.7497 23.84C18.9097 24.44 19.0497 25.04 19.1697 25.64C19.3097 26.22 19.3997 26.73 19.4397 27.17C19.5797 26.53 19.7297 25.93 19.8897 25.37C20.0497 24.79 20.2197 24.21 20.3997 23.63L24.3597 10.79H26.5497L30.6897 22.25C30.9297 22.87 31.1397 23.5 31.3197 24.14C31.5197 24.78 31.6897 25.37 31.8297 25.91C31.9897 26.43 32.0997 26.87 32.1597 27.23C32.2597 26.75 32.3697 26.2 32.4897 25.58C32.6297 24.96 32.7697 24.32 32.9097 23.66C33.0497 22.98 33.1997 22.32 33.3597 21.68L34.9497 15.2C35.0097 14.96 35.0697 14.67 35.1297 14.33C35.1897 13.99 35.2197 13.74 35.2197 13.58C35.2197 13.06 35.0597 12.7 34.7397 12.5C34.4397 12.28 33.9597 12.17 33.2997 12.17H32.6097V10.58H40.4397V12.17H39.8697C39.4897 12.17 39.1597 12.23 38.8797 12.35C38.5997 12.45 38.3597 12.67 38.1597 13.01C37.9597 13.35 37.7697 13.85 37.5897 14.51L32.9397 32H29.5197L24.4797 17.93L20.1597 32H16.4397L10.9497 13.76ZM47.8141 32.3C45.4141 32.3 43.5241 31.61 42.1441 30.23C40.7641 28.83 40.0741 26.72 40.0741 23.9C40.0741 21.08 40.7341 18.98 42.0541 17.6C43.3741 16.22 45.3241 15.53 47.9041 15.53C50.3041 15.53 52.1941 16.22 53.5741 17.6C54.9541 18.98 55.6441 21.08 55.6441 23.9C55.6441 26.72 54.9741 28.83 53.6341 30.23C52.3141 31.61 50.3741 32.3 47.8141 32.3ZM47.8741 30.41C48.6541 30.41 49.2641 30.17 49.7041 29.69C50.1641 29.19 50.4941 28.46 50.6941 27.5C50.8941 26.52 50.9941 25.32 50.9941 23.9C50.9941 22.46 50.8941 21.27 50.6941 20.33C50.4941 19.37 50.1641 18.65 49.7041 18.17C49.2441 17.69 48.6341 17.45 47.8741 17.45C47.0941 17.45 46.4741 17.69 46.0141 18.17C45.5541 18.65 45.2241 19.37 45.0241 20.33C44.8241 21.27 44.7241 22.46 44.7241 23.9C44.7241 25.32 44.8241 26.52 45.0241 27.5C45.2241 28.46 45.5541 29.19 46.0141 29.69C46.4941 30.17 47.1141 30.41 47.8741 30.41ZM66.2125 32.3C63.8125 32.3 61.9225 31.61 60.5425 30.23C59.1625 28.83 58.4725 26.72 58.4725 23.9C58.4725 21.08 59.1325 18.98 60.4525 17.6C61.7725 16.22 63.7225 15.53 66.3025 15.53C68.7025 15.53 70.5925 16.22 71.9725 17.6C73.3525 18.98 74.0425 21.08 74.0425 23.9C74.0425 26.72 73.3725 28.83 72.0325 30.23C70.7125 31.61 68.7725 32.3 66.2125 32.3ZM66.2725 30.41C67.0525 30.41 67.6625 30.17 68.1025 29.69C68.5625 29.19 68.8925 28.46 69.0925 27.5C69.2925 26.52 69.3925 25.32 69.3925 23.9C69.3925 22.46 69.2925 21.27 69.0925 20.33C68.8925 19.37 68.5625 18.65 68.1025 18.17C67.6425 17.69 67.0325 17.45 66.2725 17.45C65.4925 17.45 64.8725 17.69 64.4125 18.17C63.9525 18.65 63.6225 19.37 63.4225 20.33C63.2225 21.27 63.1225 22.46 63.1225 23.9C63.1225 25.32 63.2225 26.52 63.4225 27.5C63.6225 28.46 63.9525 29.19 64.4125 29.69C64.8925 30.17 65.5125 30.41 66.2725 30.41ZM76.0609 32V30.41H76.1509C76.6109 30.41 77.0109 30.36 77.3509 30.26C77.6909 30.16 77.9609 29.96 78.1609 29.66C78.3609 29.34 78.4609 28.87 78.4609 28.25V19.55C78.4609 18.95 78.3709 18.51 78.1909 18.23C78.0109 17.93 77.7609 17.74 77.4409 17.66C77.1209 17.56 76.7409 17.51 76.3009 17.51H76.2109V15.92H82.2709L82.8709 18.26H83.0209C83.2809 17.66 83.5809 17.16 83.9209 16.76C84.2609 16.36 84.6909 16.06 85.2109 15.86C85.7509 15.66 86.4309 15.56 87.2509 15.56C88.4309 15.56 89.3009 15.77 89.8609 16.19C90.4209 16.61 90.7009 17.21 90.7009 17.99C90.7009 18.91 90.3609 19.63 89.6809 20.15C89.0209 20.65 88.0909 20.9 86.8909 20.9C86.8909 20.34 86.8409 19.88 86.7409 19.52C86.6609 19.16 86.5109 18.89 86.2909 18.71C86.0909 18.51 85.8009 18.41 85.4209 18.41C84.9009 18.41 84.4809 18.59 84.1609 18.95C83.8409 19.31 83.6009 19.76 83.4409 20.3C83.2809 20.82 83.1709 21.35 83.1109 21.89C83.0509 22.43 83.0209 22.87 83.0209 23.21V28.4C83.0209 28.98 83.1109 29.42 83.2909 29.72C83.4709 30 83.7209 30.19 84.0409 30.29C84.3609 30.37 84.7209 30.41 85.1209 30.41H86.0809V32H76.0609ZM91.6741 32V30.41H92.0341C92.3341 30.41 92.6441 30.37 92.9641 30.29C93.3041 30.19 93.5841 30 93.8041 29.72C94.0441 29.44 94.1641 29.02 94.1641 28.46V19.34C94.1641 18.8 94.0441 18.4 93.8041 18.14C93.5641 17.88 93.2741 17.71 92.9341 17.63C92.6141 17.55 92.3141 17.51 92.0341 17.51H91.6741V15.92H98.7241V28.46C98.7241 29.02 98.8341 29.44 99.0541 29.72C99.2941 30 99.5841 30.19 99.9241 30.29C100.264 30.37 100.574 30.41 100.854 30.41H101.214V32H91.6741ZM96.2941 13.22C95.5741 13.22 94.9641 13.05 94.4641 12.71C93.9841 12.35 93.7441 11.8 93.7441 11.06C93.7441 10.3 93.9941 9.75 94.4941 9.41C94.9941 9.07 95.6041 8.9 96.3241 8.9C97.0041 8.9 97.5941 9.07 98.0941 9.41C98.6141 9.75 98.8741 10.3 98.8741 11.06C98.8741 11.8 98.6141 12.35 98.0941 12.71C97.5941 13.05 96.9941 13.22 96.2941 13.22ZM102.551 32V30.41H103.811C104.091 30.41 104.341 30.37 104.561 30.29C104.801 30.21 104.991 30.04 105.131 29.78C105.271 29.52 105.341 29.13 105.341 28.61V14C105.341 13.46 105.271 13.06 105.131 12.8C104.991 12.54 104.801 12.37 104.561 12.29C104.341 12.21 104.091 12.17 103.811 12.17H102.551V10.58H111.191L116.171 25.07L120.941 10.58H129.431V12.17H128.171C127.891 12.17 127.631 12.22 127.391 12.32C127.151 12.4 126.961 12.58 126.821 12.86C126.701 13.12 126.641 13.54 126.641 14.12V28.46C126.641 29.02 126.701 29.44 126.821 29.72C126.961 30 127.151 30.19 127.391 30.29C127.631 30.37 127.891 30.41 128.171 30.41H129.431V32H119.831V30.41H120.131C120.551 30.41 120.901 30.37 121.181 30.29C121.461 30.21 121.671 30.05 121.811 29.81C121.951 29.57 122.021 29.21 122.021 28.73V13.55L115.961 32H113.921L107.591 13.55V28.46C107.591 29.02 107.671 29.44 107.831 29.72C108.011 30 108.271 30.19 108.611 30.29C108.951 30.37 109.351 30.41 109.811 30.41H109.991V32H102.551ZM136.335 32.3C135.455 32.3 134.655 32.13 133.935 31.79C133.235 31.43 132.675 30.89 132.255 30.17C131.835 29.43 131.625 28.51 131.625 27.41C131.625 25.79 132.185 24.59 133.305 23.81C134.425 23.03 136.105 22.6 138.345 22.52L140.805 22.43V20.78C140.805 20.1 140.765 19.51 140.685 19.01C140.605 18.49 140.435 18.09 140.175 17.81C139.915 17.51 139.505 17.36 138.945 17.36C138.445 17.36 138.045 17.5 137.745 17.78C137.445 18.06 137.235 18.45 137.115 18.95C136.995 19.43 136.935 19.98 136.935 20.6C135.595 20.6 134.585 20.45 133.905 20.15C133.225 19.85 132.885 19.33 132.885 18.59C132.885 17.85 133.165 17.26 133.725 16.82C134.285 16.38 135.035 16.06 135.975 15.86C136.915 15.64 137.945 15.53 139.065 15.53C141.165 15.53 142.735 15.91 143.775 16.67C144.835 17.43 145.365 18.75 145.365 20.63V28.28C145.365 28.82 145.415 29.25 145.515 29.57C145.635 29.87 145.825 30.09 146.085 30.23C146.365 30.35 146.725 30.41 147.165 30.41H147.285V32H141.705L141.075 29.93H140.805C140.365 30.47 139.945 30.92 139.545 31.28C139.165 31.62 138.725 31.87 138.225 32.03C137.725 32.21 137.095 32.3 136.335 32.3ZM137.985 30.11C138.565 30.11 139.065 29.96 139.485 29.66C139.905 29.34 140.225 28.89 140.445 28.31C140.685 27.73 140.805 27.05 140.805 26.27V24.02L139.455 24.11C138.655 24.15 138.025 24.31 137.565 24.59C137.105 24.85 136.775 25.23 136.575 25.73C136.375 26.21 136.275 26.81 136.275 27.53C136.275 28.09 136.335 28.57 136.455 28.97C136.575 29.35 136.765 29.64 137.025 29.84C137.285 30.02 137.605 30.11 137.985 30.11ZM148.624 39.2V37.61H148.984C149.284 37.61 149.594 37.56 149.914 37.46C150.254 37.38 150.534 37.2 150.754 36.92C150.994 36.64 151.114 36.22 151.114 35.66V19.61C151.114 18.99 151.024 18.54 150.844 18.26C150.664 17.96 150.424 17.76 150.124 17.66C149.824 17.56 149.484 17.51 149.104 17.51H148.894V15.92H154.774L155.314 18.26H155.434C155.874 17.48 156.454 16.85 157.174 16.37C157.914 15.87 158.864 15.62 160.024 15.62C162.024 15.62 163.544 16.29 164.584 17.63C165.644 18.97 166.174 21.1 166.174 24.02C166.174 26.92 165.654 29.04 164.614 30.38C163.594 31.7 162.104 32.36 160.144 32.36C159.004 32.36 158.074 32.15 157.354 31.73C156.654 31.29 156.084 30.7 155.644 29.96H155.434C155.474 30.24 155.514 30.62 155.554 31.1C155.594 31.56 155.624 32.01 155.644 32.45C155.664 32.91 155.674 33.29 155.674 33.59V35.66C155.674 36.22 155.784 36.64 156.004 36.92C156.244 37.2 156.534 37.38 156.874 37.46C157.214 37.56 157.524 37.61 157.804 37.61H158.464V39.2H148.624ZM158.734 30.14C159.414 30.14 159.954 29.92 160.354 29.48C160.774 29.02 161.074 28.34 161.254 27.44C161.454 26.54 161.554 25.41 161.554 24.05C161.554 22.71 161.454 21.59 161.254 20.69C161.074 19.77 160.774 19.07 160.354 18.59C159.954 18.11 159.424 17.87 158.764 17.87C157.964 17.87 157.334 18.11 156.874 18.59C156.434 19.05 156.124 19.74 155.944 20.66C155.764 21.58 155.674 22.7 155.674 24.02C155.674 25.4 155.764 26.55 155.944 27.47C156.124 28.37 156.434 29.04 156.874 29.48C157.334 29.92 157.954 30.14 158.734 30.14Z" fill="black"/>
<circle cx="202" cy="21" r="19" fill="#97BAFF" fill-opacity="0.5" stroke="black" stroke-width="2"/>
<circle cx="230" cy="21" r="19" stroke="black" stroke-width="2"/>
</svg>
