<svg width="48" height="48" viewBox="0 0 48 48" fill="none" xmlns="http://www.w3.org/2000/svg">
<path fill-rule="evenodd" clip-rule="evenodd" d="M26 6C26 4.89543 25.1046 4 24 4C22.8954 4 22 4.89543 22 6V7.5H20.8852C16.435 7.5 12.7518 10.96 12.474 15.4015L12.032 22.4684C11.8635 25.1628 10.9589 27.7593 9.41681 29.9752C8.02344 31.9773 9.26388 34.7424 11.6857 35.0331L18.5 35.8508V38C18.5 41.0376 20.9624 43.5 24 43.5C27.0376 43.5 29.5 41.0376 29.5 38V35.8508L36.3142 35.0331C38.7361 34.7424 39.9765 31.9773 38.5832 29.9752C37.041 27.7593 36.1365 25.1628 35.9679 22.4684L35.5259 15.4015C35.2482 10.96 31.565 7.5 27.1148 7.5H26V6ZM20.8852 10.5C18.0192 10.5 15.6471 12.7283 15.4682 15.5888L15.0262 22.6557C14.8234 25.8979 13.7349 29.0224 11.8792 31.6888C11.7785 31.8335 11.8681 32.0334 12.0432 32.0544L19.5185 32.9515C22.4955 33.3087 25.5045 33.3087 28.4815 32.9515L35.9568 32.0544C36.1319 32.0334 36.2215 31.8336 36.1208 31.6888C34.2651 29.0224 33.1766 25.8979 32.9738 22.6557L32.5318 15.5888C32.3529 12.7283 29.9808 10.5 27.1148 10.5H20.8852ZM24 40.5C22.6193 40.5 21.5 39.3807 21.5 38V36.5H26.5V38C26.5 39.3807 25.3807 40.5 24 40.5Z" fill="white"/>
</svg>
